# xmcd
#
# Track frame offsets:
#	150
#	15719
#	30981
#	48015
#	62505
#	80567
#	94834
#	110346
#	125211
#	138465
#	154355
#	170525
#	182451
#
# Disc length: 2703
#
# Revision: 2
# Processed by: cddbd v1.5.1PL0 Copyright (c) Steve Scherf et al.
# Submitted via: CDex 1.30
# Normalized: r1:TDELIM( - )
#
DISCID=a40a8d0d
DTITLE=CDX - Volume 259 Feb 2001
DYEAR=2001
DGENRE=Country
TTITLE0=Brooks n Dunn - Ain't Nothing 'Bout You
TTITLE1=LeAnn Rimes - But I Do Love You
TTITLE2=James \ Dean - Fire Red Thunderbird
TTITLE3=L. Morgan/S. Kershaw - He Drinks Tequila
TTITLE4=Sara Evans - I Could Not Ask For More
TTITLE5=Craig Morgan - I Want Us Back
TTITLE6=Kentucky Headhunters - Jessico
TTITLE7=Clay Walker - Say No More
TTITLE8=Rick Ferrell - The Girl's Got It Going On
TTITLE9=Collin Raye - You Still Take Me There
TTITLE10=Bill Luther - You Will Always Be Mine
TTITLE11=4 Sisters And A Cousin - California Dreamin
TTITLE12=Karen Shayne - Get Up Get Out
EXTD=\n\nYEAR: 2001  ID3G:   2
EXTT0=
EXTT1=
EXTT2=
EXTT3=
EXTT4=
EXTT5=
EXTT6=
EXTT7=
EXTT8=
EXTT9=
EXTT10=
EXTT11=
EXTT12=
PLAYORDER=
